<svg width="359" height="220" viewBox="0 0 359 220" fill="none" xmlns="http://www.w3.org/2000/svg">
<rect width="358.932" height="220" rx="20" fill="#252134"/>
<g clip-path="url(#clip0_120_318)">
<path d="M65.3165 43.0641C68.3963 43.0641 70.9199 40.5404 70.9199 37.4607C70.9199 34.3809 68.3963 31.8572 65.3165 31.8572C62.2368 31.8572 59.7131 34.3809 59.7131 37.4607C59.7131 40.5404 62.2368 43.0641 65.3165 43.0641ZM48.8912 47.6409C46.8808 47.6409 45.2554 49.2664 45.2554 51.2767C45.2554 53.2871 46.8808 54.9126 48.8912 54.9126C50.9016 54.9126 52.527 53.2871 52.527 51.2767C52.527 49.2664 50.9016 47.6409 48.8912 47.6409ZM77.0794 50.849C75.6679 50.849 74.513 52.0039 74.513 53.4155C74.513 54.827 75.6679 55.9819 77.0794 55.9819C78.491 55.9819 79.6459 54.827 79.6459 53.4155C79.6459 52.0039 78.491 50.849 77.0794 50.849ZM91.9221 37.8029C91.5799 33.611 88.158 30.2318 83.9661 29.9324C80.1164 29.6757 76.78 31.9 75.3685 35.1509V35.1936L72.8876 41.0537C71.6899 43.9196 69.2945 46.1011 66.3859 47.0849C64.3327 47.7693 62.0229 47.256 60.4403 45.7589C59.7986 45.16 59.2854 44.6467 59.2854 44.6467C58.0021 43.4491 57.1894 41.8236 56.8472 40.1554C56.7189 39.5566 56.7189 38.9578 56.7189 38.3589L56.9755 31.8572L57.1039 28.8203C57.1039 28.7347 57.1039 28.6492 57.1039 28.5636C57.1039 20.3937 50.2172 13.892 41.9618 14.4481C34.9896 14.8759 29.3434 20.5221 28.8729 27.4943C28.7873 28.7347 28.8729 29.9324 29.0867 31.0873C30.2844 37.6745 36.0589 42.6791 42.9884 42.6791C43.2878 42.6791 49.1906 43.1069 51.5004 44.3901L53.0831 45.2884C54.623 46.1866 55.8206 47.5554 56.505 49.1808L58.4726 54.0571C58.9859 56.1102 60.8252 57.6073 63.0067 57.6073C64.5038 57.6073 65.8298 56.923 66.6853 55.8108C67.3697 54.9126 72.5454 49.7369 72.5454 49.7369C73.7858 48.4964 75.4112 47.7693 77.165 47.6409L84.0089 47.1704C87.6019 46.871 90.5533 44.4329 91.5799 41.1392C91.8366 40.3265 91.9649 39.4711 91.9649 38.5728C91.9649 38.3161 91.9649 38.0595 91.9221 37.8029Z" fill="url(#paint0_linear_120_318)"/>
</g>
<g clip-path="url(#clip1_120_318)">
<path d="M319.871 43.2345C319.887 43.2235 319.902 43.2109 319.916 43.197C323.751 39.3805 325.87 34.2992 325.883 28.889C325.896 23.4792 323.802 18.3881 319.986 14.5535C319.927 14.4939 319.847 14.4595 319.762 14.4593C319.678 14.4591 319.597 14.4922 319.538 14.5515L317.438 16.6407C317.379 16.6999 317.346 16.7802 317.345 16.864C317.345 16.9479 317.378 17.0284 317.437 17.0878C320.582 20.2473 322.308 24.4353 322.297 28.8804C322.286 33.3254 320.54 37.5051 317.381 40.6495C317.321 40.7087 317.288 40.789 317.288 40.8728C317.288 40.9566 317.321 41.0372 317.38 41.0966L319.469 43.1958C319.528 43.2553 319.609 43.2888 319.692 43.289C319.756 43.2893 319.818 43.2702 319.871 43.2345Z" fill="#FAFAFA"/>
<path d="M320.346 28.8755C320.355 24.9508 318.831 21.2532 316.055 18.4639C315.932 18.3402 315.732 18.3397 315.608 18.4629L313.516 20.5456C313.456 20.6048 313.423 20.6851 313.422 20.769C313.422 20.8529 313.455 20.9334 313.514 20.9928C315.614 23.1025 316.766 25.8989 316.759 28.8669C316.752 31.8351 315.586 34.626 313.477 36.7253C313.417 36.7845 313.384 36.8649 313.383 36.9487C313.383 37.0326 313.416 37.1131 313.476 37.1725L315.558 39.2654C315.617 39.3248 315.698 39.3584 315.782 39.3586C315.866 39.3588 315.946 39.3257 316.006 39.2664C318.795 36.4905 320.336 32.8003 320.346 28.8755Z" fill="#FAFAFA"/>
<path d="M314.806 28.8623C314.812 26.4147 313.862 24.1087 312.131 22.3692C312.072 22.3096 311.991 22.2762 311.907 22.276C311.823 22.2758 311.743 22.3088 311.683 22.3681L309.591 24.4508C309.531 24.51 309.498 24.5903 309.498 24.6742C309.497 24.758 309.53 24.8385 309.59 24.8979C310.645 25.9579 311.223 27.3627 311.22 28.8537C311.216 30.3447 310.63 31.7469 309.571 32.8017C309.511 32.8609 309.478 32.9412 309.477 33.025C309.477 33.1088 309.51 33.1894 309.57 33.2488L311.652 35.3415C311.776 35.4653 311.976 35.4658 312.099 35.3426C313.839 33.6115 314.8 31.3101 314.806 28.8623Z" fill="#FAFAFA"/>
</g>
<g clip-path="url(#clip2_120_318)">
<path d="M41.8959 97.6774H28.8298V84.7579H42.1884C41.8959 87.4881 41.7496 90.3157 41.7496 93.1922C41.7496 94.7035 41.7984 96.2148 41.8959 97.6774Z" fill="#FAFAFA"/>
<path d="M43.1632 107.476H38.239C33.4611 107.476 29.4633 103.868 28.927 99.2367H41.9931C42.1881 102.162 42.5781 104.941 43.1632 107.476Z" fill="#FAFAFA"/>
<path d="M44.2362 74.9589C43.4073 77.3477 42.8223 80.1754 42.3835 83.1981H28.8787C29.4637 78.5666 33.4615 74.9589 38.2394 74.9589H44.2362Z" fill="#FAFAFA"/>
<path d="M56.9117 83.1979H43.9919C44.4307 80.029 45.0645 77.2014 45.8933 74.9587H55.0591C55.8392 77.2014 56.473 80.029 56.9117 83.1979Z" fill="#FAFAFA"/>
<path d="M43.5537 99.2368H57.3998C57.1073 102.259 56.7173 105.038 56.181 107.476H44.7238C44.1875 105.038 43.7975 102.259 43.5537 99.2368Z" fill="#FAFAFA"/>
<path d="M57.595 93.1922C57.595 94.7035 57.5462 96.2148 57.4487 97.6286H43.4563C43.3588 96.1661 43.3101 94.7035 43.3101 93.1922C43.3101 90.2182 43.4563 87.3906 43.7488 84.7579H57.1074C57.4487 87.3906 57.595 90.2182 57.595 93.1922Z" fill="#FAFAFA"/>
<path d="M72.026 83.1979H58.5211C58.0823 80.1753 57.4973 77.3476 56.6685 74.9587H62.6652C67.4918 74.9587 71.4409 78.5664 72.026 83.1979Z" fill="#FAFAFA"/>
<path d="M58.9111 99.2368H71.9771C71.3921 103.868 67.443 107.476 62.6651 107.476H57.741C58.326 104.941 58.716 102.162 58.9111 99.2368Z" fill="#FAFAFA"/>
<path d="M72.0745 84.7579V97.6774H59.0572C59.1547 96.2148 59.2034 94.7035 59.2034 93.2409C59.2034 90.3645 59.0572 87.5368 58.7646 84.8067H72.0745V84.7579Z" fill="#FAFAFA"/>
</g>
<path d="M36.4632 130V146.774H34.432V132.129H34.3337L30.2386 134.849V132.785L34.432 130H36.4632ZM41.2873 146.774V145.299L46.8239 139.239C47.4737 138.529 48.0088 137.912 48.4292 137.388C48.8496 136.858 49.1609 136.361 49.3629 135.897C49.5704 135.427 49.6741 134.936 49.6741 134.423C49.6741 133.833 49.5322 133.322 49.2482 132.891C48.9698 132.46 48.5876 132.127 48.1016 131.892C47.6156 131.657 47.0696 131.54 46.4635 131.54C45.8192 131.54 45.2568 131.674 44.7763 131.941C44.3013 132.203 43.9327 132.572 43.6707 133.047C43.414 133.522 43.2857 134.079 43.2857 134.718H41.3528C41.3528 133.735 41.5794 132.872 42.0326 132.129C42.4858 131.387 43.1028 130.808 43.8836 130.393C44.6699 129.978 45.5517 129.771 46.5291 129.771C47.5119 129.771 48.3828 129.978 49.1418 130.393C49.9007 130.808 50.4959 131.368 50.9273 132.072C51.3586 132.776 51.5743 133.56 51.5743 134.423C51.5743 135.04 51.4624 135.643 51.2385 136.233C51.0201 136.817 50.6379 137.47 50.0918 138.19C49.5513 138.906 48.8005 139.779 47.8395 140.811L44.072 144.841V144.972H51.8691V146.774H41.2873ZM60.9194 147.003C59.8383 147.003 58.8746 146.817 58.0282 146.446C57.1874 146.075 56.5185 145.559 56.0216 144.898C55.5302 144.232 55.2627 143.459 55.219 142.58H57.2829C57.3266 143.121 57.5123 143.588 57.8399 143.981C58.1675 144.368 58.5961 144.669 59.1257 144.882C59.6554 145.095 60.2424 145.201 60.8867 145.201C61.6074 145.201 62.2462 145.076 62.8032 144.824C63.3601 144.573 63.7969 144.224 64.1136 143.776C64.4303 143.328 64.5887 142.81 64.5887 142.22C64.5887 141.603 64.4358 141.06 64.13 140.59C63.8242 140.115 63.3765 139.744 62.7868 139.476C62.1971 139.209 61.4764 139.075 60.6246 139.075H59.2814V137.273H60.6246C61.2907 137.273 61.875 137.153 62.3773 136.913C62.8851 136.672 63.281 136.334 63.5649 135.897C63.8543 135.46 63.999 134.947 63.999 134.357C63.999 133.789 63.8734 133.295 63.6222 132.875C63.371 132.454 63.0161 132.127 62.5575 131.892C62.1043 131.657 61.5692 131.54 60.9522 131.54C60.3734 131.54 59.8274 131.646 59.3141 131.859C58.8063 132.067 58.3913 132.37 58.0692 132.768C57.747 133.161 57.5723 133.636 57.545 134.193H55.5793C55.6121 133.314 55.8769 132.544 56.3738 131.884C56.8707 131.218 57.5204 130.699 58.3231 130.328C59.1312 129.956 60.0185 129.771 60.9849 129.771C62.0224 129.771 62.9124 129.981 63.655 130.401C64.3976 130.816 64.9682 131.365 65.3667 132.048C65.7653 132.73 65.9646 133.467 65.9646 134.259C65.9646 135.204 65.7162 136.009 65.2193 136.675C64.7279 137.341 64.059 137.803 63.2127 138.059V138.19C64.272 138.365 65.0992 138.815 65.6944 139.542C66.2895 140.262 66.5871 141.155 66.5871 142.22C66.5871 143.132 66.3387 143.951 65.8418 144.677C65.3504 145.398 64.6788 145.966 63.827 146.381C62.9752 146.796 62.006 147.003 60.9194 147.003ZM69.5438 143.334V141.663L76.9151 130H78.1272V132.588H77.3082L71.7388 141.401V141.532H81.6654V143.334H69.5438ZM77.4392 146.774V142.826V142.048V130H79.3722V146.774H77.4392ZM102.95 147.003C101.989 147.003 101.124 146.812 100.354 146.43C99.5838 146.047 98.9668 145.523 98.5026 144.857C98.0385 144.191 97.7846 143.432 97.7409 142.58H99.7066C99.7831 143.339 100.127 143.967 100.739 144.464C101.356 144.955 102.093 145.201 102.95 145.201C103.638 145.201 104.25 145.04 104.785 144.718C105.325 144.396 105.748 143.953 106.054 143.391C106.365 142.823 106.521 142.182 106.521 141.466C106.521 140.735 106.36 140.082 106.038 139.509C105.721 138.93 105.284 138.474 104.727 138.141C104.17 137.808 103.534 137.639 102.819 137.633C102.306 137.628 101.779 137.707 101.238 137.871C100.698 138.029 100.253 138.234 99.9032 138.485L98.003 138.256L99.0186 130H107.733V131.802H100.722L100.133 136.749H100.231C100.575 136.476 101.006 136.249 101.525 136.069C102.044 135.889 102.584 135.799 103.147 135.799C104.173 135.799 105.088 136.044 105.89 136.536C106.698 137.022 107.332 137.688 107.79 138.534C108.255 139.381 108.487 140.347 108.487 141.434C108.487 142.504 108.246 143.459 107.766 144.3C107.291 145.136 106.636 145.796 105.8 146.282C104.965 146.763 104.015 147.003 102.95 147.003ZM117.31 147.003C116.622 146.992 115.934 146.861 115.246 146.61C114.558 146.359 113.93 145.936 113.362 145.34C112.794 144.74 112.338 143.929 111.994 142.908C111.65 141.881 111.478 140.593 111.478 139.042C111.478 137.557 111.617 136.241 111.896 135.094C112.174 133.942 112.578 132.973 113.108 132.187C113.638 131.395 114.276 130.794 115.025 130.385C115.778 129.975 116.627 129.771 117.572 129.771C118.511 129.771 119.346 129.959 120.078 130.336C120.815 130.707 121.416 131.226 121.88 131.892C122.344 132.558 122.644 133.325 122.781 134.193H120.782C120.597 133.44 120.236 132.815 119.701 132.318C119.166 131.821 118.456 131.572 117.572 131.572C116.272 131.572 115.248 132.138 114.5 133.268C113.758 134.398 113.384 135.984 113.378 138.026H113.509C113.815 137.562 114.178 137.166 114.599 136.839C115.025 136.506 115.494 136.249 116.007 136.069C116.521 135.889 117.064 135.799 117.637 135.799C118.598 135.799 119.477 136.039 120.274 136.519C121.072 136.994 121.711 137.652 122.191 138.493C122.672 139.329 122.912 140.287 122.912 141.368C122.912 142.406 122.68 143.356 122.216 144.218C121.751 145.076 121.099 145.758 120.258 146.266C119.423 146.768 118.44 147.014 117.31 147.003ZM117.31 145.201C117.998 145.201 118.615 145.029 119.161 144.685C119.712 144.341 120.146 143.88 120.463 143.301C120.785 142.722 120.946 142.078 120.946 141.368C120.946 140.675 120.79 140.044 120.479 139.476C120.173 138.903 119.75 138.447 119.21 138.108C118.675 137.77 118.063 137.601 117.375 137.601C116.856 137.601 116.373 137.704 115.925 137.912C115.478 138.114 115.085 138.392 114.746 138.747C114.413 139.102 114.151 139.509 113.96 139.968C113.769 140.421 113.673 140.899 113.673 141.401C113.673 142.067 113.829 142.689 114.14 143.268C114.457 143.847 114.888 144.314 115.434 144.669C115.986 145.024 116.611 145.201 117.31 145.201ZM126.657 146.774L134.159 131.933V131.802H125.51V130H136.256V131.9L128.786 146.774H126.657ZM144.344 147.003C143.219 147.003 142.225 146.804 141.362 146.405C140.505 146.001 139.836 145.447 139.356 144.742C138.875 144.033 138.638 143.225 138.643 142.318C138.638 141.608 138.777 140.953 139.061 140.352C139.345 139.746 139.733 139.241 140.224 138.837C140.721 138.428 141.275 138.168 141.887 138.059V137.961C141.084 137.753 140.445 137.303 139.97 136.61C139.495 135.911 139.26 135.116 139.266 134.226C139.26 133.374 139.476 132.613 139.913 131.941C140.35 131.269 140.95 130.74 141.715 130.352C142.485 129.964 143.361 129.771 144.344 129.771C145.316 129.771 146.184 129.964 146.948 130.352C147.713 130.74 148.313 131.269 148.75 131.941C149.192 132.613 149.416 133.374 149.422 134.226C149.416 135.116 149.173 135.911 148.693 136.61C148.218 137.303 147.587 137.753 146.801 137.961V138.059C147.407 138.168 147.953 138.428 148.439 138.837C148.925 139.241 149.313 139.746 149.602 140.352C149.891 140.953 150.039 141.608 150.044 142.318C150.039 143.225 149.793 144.033 149.307 144.742C148.827 145.447 148.158 146.001 147.3 146.405C146.449 146.804 145.463 147.003 144.344 147.003ZM144.344 145.201C145.103 145.201 145.758 145.078 146.309 144.833C146.861 144.587 147.287 144.24 147.587 143.792C147.887 143.345 148.04 142.82 148.046 142.22C148.04 141.586 147.876 141.027 147.554 140.541C147.232 140.055 146.793 139.673 146.236 139.394C145.684 139.116 145.054 138.977 144.344 138.977C143.628 138.977 142.99 139.116 142.427 139.394C141.87 139.673 141.431 140.055 141.109 140.541C140.792 141.027 140.636 141.586 140.642 142.22C140.636 142.82 140.781 143.345 141.076 143.792C141.376 144.24 141.805 144.587 142.362 144.833C142.919 145.078 143.579 145.201 144.344 145.201ZM144.344 137.24C144.944 137.24 145.477 137.12 145.941 136.88C146.41 136.64 146.779 136.304 147.047 135.872C147.314 135.441 147.451 134.936 147.456 134.357C147.451 133.789 147.317 133.295 147.055 132.875C146.793 132.449 146.43 132.121 145.965 131.892C145.501 131.657 144.961 131.54 144.344 131.54C143.716 131.54 143.167 131.657 142.697 131.892C142.228 132.121 141.865 132.449 141.608 132.875C141.352 133.295 141.226 133.789 141.231 134.357C141.226 134.936 141.354 135.441 141.616 135.872C141.884 136.304 142.252 136.64 142.722 136.88C143.192 137.12 143.732 137.24 144.344 137.24ZM171.497 129.771C172.185 129.776 172.873 129.907 173.561 130.164C174.249 130.42 174.876 130.846 175.444 131.441C176.012 132.031 176.468 132.837 176.812 133.858C177.156 134.879 177.328 136.159 177.328 137.699C177.328 139.189 177.186 140.514 176.902 141.671C176.624 142.823 176.22 143.795 175.69 144.587C175.166 145.379 174.527 145.979 173.774 146.389C173.025 146.798 172.179 147.003 171.235 147.003C170.295 147.003 169.457 146.817 168.72 146.446C167.988 146.069 167.388 145.548 166.918 144.882C166.454 144.21 166.157 143.432 166.025 142.547H168.024C168.204 143.317 168.562 143.953 169.097 144.456C169.637 144.953 170.35 145.201 171.235 145.201C172.529 145.201 173.55 144.636 174.298 143.506C175.051 142.375 175.428 140.778 175.428 138.714H175.297C174.991 139.173 174.628 139.569 174.208 139.902C173.787 140.235 173.32 140.492 172.807 140.672C172.294 140.852 171.748 140.942 171.169 140.942C170.208 140.942 169.326 140.705 168.524 140.23C167.726 139.749 167.088 139.091 166.607 138.256C166.132 137.415 165.894 136.454 165.894 135.373C165.894 134.346 166.124 133.407 166.582 132.555C167.047 131.698 167.696 131.016 168.532 130.508C169.373 130 170.361 129.754 171.497 129.771ZM171.497 131.572C170.809 131.572 170.189 131.744 169.637 132.088C169.091 132.427 168.657 132.886 168.335 133.464C168.018 134.038 167.86 134.674 167.86 135.373C167.86 136.072 168.013 136.708 168.319 137.281C168.63 137.849 169.053 138.302 169.588 138.641C170.129 138.974 170.743 139.14 171.431 139.14C171.95 139.14 172.433 139.039 172.881 138.837C173.329 138.63 173.719 138.349 174.052 137.994C174.391 137.633 174.655 137.227 174.846 136.773C175.038 136.315 175.133 135.837 175.133 135.34C175.133 134.685 174.975 134.071 174.658 133.497C174.347 132.924 173.915 132.46 173.364 132.105C172.818 131.75 172.196 131.572 171.497 131.572ZM186.02 147.003C184.786 147.003 183.735 146.667 182.867 145.996C181.999 145.319 181.335 144.338 180.877 143.055C180.418 141.767 180.189 140.211 180.189 138.387C180.189 136.574 180.418 135.026 180.877 133.743C181.341 132.454 182.007 131.471 182.875 130.794C183.749 130.112 184.797 129.771 186.02 129.771C187.243 129.771 188.289 130.112 189.157 130.794C190.031 131.471 190.697 132.454 191.155 133.743C191.619 135.026 191.852 136.574 191.852 138.387C191.852 140.211 191.622 141.767 191.164 143.055C190.705 144.338 190.041 145.319 189.173 145.996C188.305 146.667 187.254 147.003 186.02 147.003ZM186.02 145.201C187.243 145.201 188.193 144.611 188.87 143.432C189.547 142.253 189.886 140.571 189.886 138.387C189.886 136.934 189.73 135.698 189.419 134.677C189.113 133.656 188.671 132.877 188.092 132.342C187.519 131.807 186.828 131.54 186.02 131.54C184.808 131.54 183.861 132.138 183.178 133.333C182.495 134.524 182.154 136.208 182.154 138.387C182.154 139.839 182.307 141.073 182.613 142.089C182.919 143.104 183.358 143.877 183.932 144.407C184.51 144.936 185.206 145.201 186.02 145.201ZM200.337 147.003C199.212 147.003 198.218 146.804 197.355 146.405C196.498 146.001 195.829 145.447 195.349 144.742C194.868 144.033 194.631 143.225 194.636 142.318C194.631 141.608 194.77 140.953 195.054 140.352C195.338 139.746 195.726 139.241 196.217 138.837C196.714 138.428 197.268 138.168 197.88 138.059V137.961C197.077 137.753 196.438 137.303 195.963 136.61C195.488 135.911 195.253 135.116 195.259 134.226C195.253 133.374 195.469 132.613 195.906 131.941C196.343 131.269 196.943 130.74 197.708 130.352C198.477 129.964 199.354 129.771 200.337 129.771C201.309 129.771 202.177 129.964 202.941 130.352C203.706 130.74 204.306 131.269 204.743 131.941C205.185 132.613 205.409 133.374 205.415 134.226C205.409 135.116 205.166 135.911 204.686 136.61C204.211 137.303 203.58 137.753 202.794 137.961V138.059C203.4 138.168 203.946 138.428 204.432 138.837C204.918 139.241 205.305 139.746 205.595 140.352C205.884 140.953 206.032 141.608 206.037 142.318C206.032 143.225 205.786 144.033 205.3 144.742C204.82 145.447 204.151 146.001 203.293 146.405C202.442 146.804 201.456 147.003 200.337 147.003ZM200.337 145.201C201.096 145.201 201.751 145.078 202.302 144.833C202.854 144.587 203.28 144.24 203.58 143.792C203.88 143.345 204.033 142.82 204.039 142.22C204.033 141.586 203.869 141.027 203.547 140.541C203.225 140.055 202.786 139.673 202.229 139.394C201.677 139.116 201.047 138.977 200.337 138.977C199.621 138.977 198.983 139.116 198.42 139.394C197.863 139.673 197.424 140.055 197.102 140.541C196.785 141.027 196.629 141.586 196.635 142.22C196.629 142.82 196.774 143.345 197.069 143.792C197.369 144.24 197.798 144.587 198.355 144.833C198.912 145.078 199.572 145.201 200.337 145.201ZM200.337 137.24C200.937 137.24 201.47 137.12 201.934 136.88C202.403 136.64 202.772 136.304 203.039 135.872C203.307 135.441 203.444 134.936 203.449 134.357C203.444 133.789 203.31 133.295 203.048 132.875C202.786 132.449 202.422 132.121 201.958 131.892C201.494 131.657 200.954 131.54 200.337 131.54C199.709 131.54 199.16 131.657 198.69 131.892C198.221 132.121 197.858 132.449 197.601 132.875C197.344 133.295 197.219 133.789 197.224 134.357C197.219 134.936 197.347 135.441 197.609 135.872C197.877 136.304 198.245 136.64 198.715 136.88C199.185 137.12 199.725 137.24 200.337 137.24ZM209.7 146.774L217.203 131.933V131.802H208.554V130H219.299V131.9L211.83 146.774H209.7ZM240.895 147.003C240.207 146.992 239.519 146.861 238.831 146.61C238.143 146.359 237.515 145.936 236.947 145.34C236.379 144.74 235.924 143.929 235.58 142.908C235.236 141.881 235.064 140.593 235.064 139.042C235.064 137.557 235.203 136.241 235.481 135.094C235.76 133.942 236.164 132.973 236.693 132.187C237.223 131.395 237.862 130.794 238.61 130.385C239.363 129.975 240.213 129.771 241.157 129.771C242.096 129.771 242.932 129.959 243.663 130.336C244.4 130.707 245.001 131.226 245.465 131.892C245.929 132.558 246.23 133.325 246.366 134.193H244.368C244.182 133.44 243.822 132.815 243.287 132.318C242.752 131.821 242.042 131.572 241.157 131.572C239.858 131.572 238.834 132.138 238.086 133.268C237.343 134.398 236.969 135.984 236.964 138.026H237.095C237.401 137.562 237.764 137.166 238.184 136.839C238.61 136.506 239.08 136.249 239.593 136.069C240.106 135.889 240.649 135.799 241.223 135.799C242.184 135.799 243.063 136.039 243.86 136.519C244.657 136.994 245.296 137.652 245.776 138.493C246.257 139.329 246.497 140.287 246.497 141.368C246.497 142.406 246.265 143.356 245.801 144.218C245.337 145.076 244.684 145.758 243.844 146.266C243.008 146.768 242.025 147.014 240.895 147.003ZM240.895 145.201C241.583 145.201 242.2 145.029 242.746 144.685C243.298 144.341 243.732 143.88 244.048 143.301C244.37 142.722 244.532 142.078 244.532 141.368C244.532 140.675 244.376 140.044 244.065 139.476C243.759 138.903 243.336 138.447 242.795 138.108C242.26 137.77 241.649 137.601 240.961 137.601C240.442 137.601 239.959 137.704 239.511 137.912C239.063 138.114 238.67 138.392 238.331 138.747C237.998 139.102 237.736 139.509 237.545 139.968C237.354 140.421 237.259 140.899 237.259 141.401C237.259 142.067 237.414 142.689 237.725 143.268C238.042 143.847 238.473 144.314 239.019 144.669C239.571 145.024 240.196 145.201 240.895 145.201ZM254.96 147.003C253.999 147.003 253.133 146.812 252.363 146.43C251.594 146.047 250.977 145.523 250.512 144.857C250.048 144.191 249.794 143.432 249.751 142.58H251.716C251.793 143.339 252.137 143.967 252.748 144.464C253.365 144.955 254.103 145.201 254.96 145.201C255.648 145.201 256.259 145.04 256.794 144.718C257.335 144.396 257.758 143.953 258.064 143.391C258.375 142.823 258.531 142.182 258.531 141.466C258.531 140.735 258.37 140.082 258.048 139.509C257.731 138.93 257.294 138.474 256.737 138.141C256.18 137.808 255.544 137.639 254.829 137.633C254.316 137.628 253.789 137.707 253.248 137.871C252.707 138.029 252.262 138.234 251.913 138.485L250.013 138.256L251.028 130H259.743V131.802H252.732L252.142 136.749H252.241C252.585 136.476 253.016 136.249 253.535 136.069C254.053 135.889 254.594 135.799 255.156 135.799C256.183 135.799 257.097 136.044 257.9 136.536C258.708 137.022 259.342 137.688 259.8 138.534C260.264 139.381 260.496 140.347 260.496 141.434C260.496 142.504 260.256 143.459 259.776 144.3C259.301 145.136 258.645 145.796 257.81 146.282C256.975 146.763 256.025 147.003 254.96 147.003ZM263.357 143.334V141.663L270.728 130H271.94V132.588H271.121L265.552 141.401V141.532H275.479V143.334H263.357ZM271.252 146.774V142.826V142.048V130H273.185V146.774H271.252ZM284.216 147.003C283.134 147.003 282.171 146.817 281.324 146.446C280.484 146.075 279.815 145.559 279.318 144.898C278.826 144.232 278.559 143.459 278.515 142.58H280.579C280.623 143.121 280.808 143.588 281.136 143.981C281.464 144.368 281.892 144.669 282.422 144.882C282.952 145.095 283.539 145.201 284.183 145.201C284.904 145.201 285.542 145.076 286.099 144.824C286.656 144.573 287.093 144.224 287.41 143.776C287.726 143.328 287.885 142.81 287.885 142.22C287.885 141.603 287.732 141.06 287.426 140.59C287.12 140.115 286.673 139.744 286.083 139.476C285.493 139.209 284.773 139.075 283.921 139.075H282.578V137.273H283.921C284.587 137.273 285.171 137.153 285.673 136.913C286.181 136.672 286.577 136.334 286.861 135.897C287.15 135.46 287.295 134.947 287.295 134.357C287.295 133.789 287.17 133.295 286.918 132.875C286.667 132.454 286.312 132.127 285.854 131.892C285.4 131.657 284.865 131.54 284.248 131.54C283.67 131.54 283.124 131.646 282.61 131.859C282.102 132.067 281.687 132.37 281.365 132.768C281.043 133.161 280.868 133.636 280.841 134.193H278.875C278.908 133.314 279.173 132.544 279.67 131.884C280.167 131.218 280.817 130.699 281.619 130.328C282.427 129.956 283.315 129.771 284.281 129.771C285.319 129.771 286.209 129.981 286.951 130.401C287.694 130.816 288.264 131.365 288.663 132.048C289.061 132.73 289.261 133.467 289.261 134.259C289.261 135.204 289.012 136.009 288.515 136.675C288.024 137.341 287.355 137.803 286.509 138.059V138.19C287.568 138.365 288.395 138.815 288.991 139.542C289.586 140.262 289.883 141.155 289.883 142.22C289.883 143.132 289.635 143.951 289.138 144.677C288.647 145.398 287.975 145.966 287.123 146.381C286.271 146.796 285.302 147.003 284.216 147.003Z" fill="#FAFAFA"/>
<path d="M32.6465 158.27V166.657H31.6309V159.334H31.5818L29.5342 160.694V159.662L31.6309 158.27H32.6465ZM35.0586 166.657V165.919L37.8269 162.889C38.1518 162.534 38.4193 162.226 38.6295 161.964C38.8397 161.699 38.9954 161.45 39.0964 161.218C39.2001 160.983 39.252 160.738 39.252 160.481C39.252 160.186 39.181 159.931 39.039 159.715C38.8998 159.5 38.7087 159.333 38.4657 159.216C38.2227 159.098 37.9497 159.04 37.6467 159.04C37.3245 159.04 37.0433 159.107 36.8031 159.24C36.5656 159.371 36.3813 159.556 36.2502 159.793C36.1219 160.031 36.0578 160.309 36.0578 160.629H35.0913C35.0913 160.137 35.2046 159.706 35.4312 159.334C35.6578 158.963 35.9663 158.674 36.3567 158.466C36.7499 158.259 37.1908 158.155 37.6794 158.155C38.1709 158.155 38.6063 158.259 38.9858 158.466C39.3653 158.674 39.6629 158.954 39.8785 159.306C40.0942 159.658 40.2021 160.05 40.2021 160.481C40.2021 160.79 40.1461 161.091 40.0342 161.386C39.925 161.678 39.7338 162.005 39.4608 162.365C39.1906 162.723 38.8152 163.159 38.3347 163.675L36.4509 165.69V165.756H40.3495V166.657H35.0586ZM45.0221 157.877L42.3193 167.918H41.4347L44.1375 157.877H45.0221ZM46.1513 166.657V165.919L48.9196 162.889C49.2445 162.534 49.512 162.226 49.7223 161.964C49.9325 161.699 50.0881 161.45 50.1891 161.218C50.2928 160.983 50.3447 160.738 50.3447 160.481C50.3447 160.186 50.2737 159.931 50.1318 159.715C49.9925 159.5 49.8014 159.333 49.5585 159.216C49.3155 159.098 49.0425 159.04 48.7394 159.04C48.4173 159.04 48.1361 159.107 47.8958 159.24C47.6583 159.371 47.474 159.556 47.343 159.793C47.2147 160.031 47.1505 160.309 47.1505 160.629H46.184C46.184 160.137 46.2973 159.706 46.5239 159.334C46.7505 158.963 47.059 158.674 47.4494 158.466C47.8426 158.259 48.2835 158.155 48.7722 158.155C49.2636 158.155 49.6991 158.259 50.0785 158.466C50.458 158.674 50.7556 158.954 50.9713 159.306C51.187 159.658 51.2948 160.05 51.2948 160.481C51.2948 160.79 51.2388 161.091 51.1269 161.386C51.0177 161.678 50.8266 162.005 50.5536 162.365C50.2833 162.723 49.9079 163.159 49.4274 163.675L47.5436 165.69V165.756H51.4422V166.657H46.1513ZM55.7544 166.771C55.2739 166.771 54.8412 166.676 54.4562 166.485C54.0713 166.294 53.7628 166.031 53.5307 165.698C53.2987 165.365 53.1717 164.986 53.1499 164.56H54.1327C54.171 164.939 54.3429 165.253 54.6487 165.502C54.9572 165.747 55.3258 165.87 55.7544 165.87C56.0984 165.87 56.4042 165.79 56.6717 165.629C56.942 165.468 57.1536 165.247 57.3065 164.965C57.4621 164.681 57.5399 164.361 57.5399 164.003C57.5399 163.637 57.4594 163.311 57.2983 163.024C57.1399 162.735 56.9215 162.507 56.6431 162.34C56.3646 162.174 56.0465 162.089 55.6889 162.086C55.4323 162.084 55.1688 162.123 54.8985 162.205C54.6282 162.284 54.4057 162.387 54.231 162.512L53.2809 162.398L53.7887 158.27H58.146V159.171H54.6405L54.3457 161.644H54.3948C54.5668 161.508 54.7825 161.394 55.0419 161.304C55.3012 161.214 55.5715 161.169 55.8527 161.169C56.366 161.169 56.8232 161.292 57.2246 161.538C57.6286 161.781 57.9453 162.114 58.1746 162.537C58.4067 162.96 58.5227 163.443 58.5227 163.987C58.5227 164.522 58.4026 164.999 58.1624 165.42C57.9248 165.838 57.5972 166.168 57.1795 166.411C56.7618 166.651 56.2868 166.771 55.7544 166.771Z" fill="#FAFAFA"/>
<path d="M33.3345 203.275H30.0993V192.792H33.4778C34.4948 192.792 35.365 193.001 36.0885 193.421C36.812 193.838 37.3665 194.436 37.7521 195.218C38.1378 195.996 38.3306 196.928 38.3306 198.013C38.3306 199.105 38.1361 200.045 37.747 200.833C37.358 201.618 36.7915 202.222 36.0475 202.646C35.3036 203.065 34.3992 203.275 33.3345 203.275ZM31.3688 202.149H33.2526C34.1194 202.149 34.8378 201.982 35.4077 201.647C35.9776 201.313 36.4024 200.837 36.6823 200.219C36.9621 199.601 37.102 198.866 37.102 198.013C37.102 197.167 36.9638 196.438 36.6874 195.827C36.411 195.213 35.998 194.742 35.4486 194.414C34.8992 194.083 34.215 193.918 33.3959 193.918H31.3688V202.149ZM40.4601 203.275V192.792H46.7871V193.918H41.7296V197.46H46.4594V198.586H41.7296V202.149H46.869V203.275H40.4601ZM49.5052 192.792L52.6175 201.617H52.7404L55.8527 192.792H57.1836L53.3342 203.275H52.0237L48.1743 192.792H49.5052ZM60.086 192.792V203.275H58.8166V192.792H60.086ZM65.8666 203.275H62.6314V192.792H66.0099C67.0269 192.792 67.8971 193.001 68.6206 193.421C69.3441 193.838 69.8986 194.436 70.2842 195.218C70.6699 195.996 70.8627 196.928 70.8627 198.013C70.8627 199.105 70.6682 200.045 70.2791 200.833C69.8901 201.618 69.3236 202.222 68.5796 202.646C67.8357 203.065 66.9313 203.275 65.8666 203.275ZM63.9009 202.149H65.7847C66.6515 202.149 67.3699 201.982 67.9398 201.647C68.5097 201.313 68.9346 200.837 69.2144 200.219C69.4942 199.601 69.6341 198.866 69.6341 198.013C69.6341 197.167 69.4959 196.438 69.2195 195.827C68.9431 195.213 68.5302 194.742 67.9807 194.414C67.4313 194.083 66.7471 193.918 65.928 193.918H63.9009V202.149ZM77.0464 192.792H78.5616L82.1243 201.494H82.2472L85.81 192.792H87.3252V203.275H86.1376V195.31H86.0352L82.7591 203.275H81.6125L78.3363 195.31H78.234V203.275H77.0464V192.792ZM91.1401 192.792V203.275H89.8706V192.792H91.1401ZM93.6855 203.275V192.792H94.955V202.149H99.8282V203.275H93.6855ZM101.794 203.275V192.792H103.063V202.149H107.937V203.275H101.794ZM109.902 203.275V192.792H116.229V193.918H111.172V197.46H115.902V198.586H111.172V202.149H116.311V203.275H109.902ZM118.517 203.275V192.792H122.06C122.879 192.792 123.551 192.931 124.077 193.211C124.602 193.488 124.991 193.868 125.244 194.353C125.496 194.837 125.622 195.389 125.622 196.006C125.622 196.624 125.496 197.172 125.244 197.649C124.991 198.127 124.604 198.503 124.082 198.776C123.56 199.045 122.892 199.18 122.08 199.18H119.214V198.033H122.039C122.599 198.033 123.049 197.951 123.391 197.788C123.735 197.624 123.984 197.392 124.138 197.091C124.295 196.788 124.373 196.426 124.373 196.006C124.373 195.587 124.295 195.22 124.138 194.906C123.981 194.592 123.73 194.349 123.386 194.179C123.041 194.005 122.585 193.918 122.019 193.918H119.787V203.275H118.517ZM123.452 198.566L126.032 203.275H124.558L122.019 198.566H123.452Z" fill="#FAFAFA"/>
<g clip-path="url(#clip3_120_318)">
<path d="M307.127 197.777C307.127 193.145 309.721 189.105 313.537 187.067C313.056 186.993 312.574 186.956 312.092 186.956C306.126 186.956 301.272 191.81 301.272 197.777C301.272 203.743 306.126 208.597 312.092 208.597C312.574 208.597 313.056 208.56 313.537 208.486C309.721 206.448 307.127 202.409 307.127 197.777Z" fill="#FAFAFA"/>
<path d="M319.281 208.597C325.257 208.597 330.102 203.752 330.102 197.776C330.102 191.8 325.257 186.955 319.281 186.955C313.305 186.955 308.461 191.8 308.461 197.776C308.461 203.752 313.305 208.597 319.281 208.597Z" fill="#FAFAFA"/>
</g>
<rect x="0.44" y="0.44" width="358.052" height="219.12" rx="19.56" stroke="#757185" stroke-opacity="0.2" stroke-width="0.88"/>
<defs>
<linearGradient id="paint0_linear_120_318" x1="81.0759" y1="20.1379" x2="49.9302" y2="67.9686" gradientUnits="userSpaceOnUse">
<stop stop-color="#FFC876"/>
<stop offset="0.234375" stop-color="#79FFF7"/>
<stop offset="0.520833" stop-color="#9F53FF"/>
<stop offset="0.776042" stop-color="#FF98E2"/>
<stop offset="1" stop-color="#FFC876"/>
</linearGradient>
<clipPath id="clip0_120_318">
<rect width="63.1348" height="43.2448" fill="white" transform="matrix(1 0 0 -1 28.8298 57.6598)"/>
</clipPath>
<clipPath id="clip1_120_318">
<rect width="28.8298" height="28.8298" fill="white" transform="translate(330.102 14.4843) rotate(90.1376)"/>
</clipPath>
<clipPath id="clip2_120_318">
<rect width="43.2448" height="32.518" fill="white" transform="translate(28.8298 74.9578)"/>
</clipPath>
<clipPath id="clip3_120_318">
<rect width="28.8298" height="21.6412" fill="white" transform="translate(301.272 186.955)"/>
</clipPath>
</defs>
</svg>
