<svg width="49" height="34" viewBox="0 0 49 34" fill="none" xmlns="http://www.w3.org/2000/svg">
<path d="M28.2985 22.4497C30.6871 22.4497 32.6444 20.4924 32.6444 18.1038C32.6444 15.7152 30.6871 13.7579 28.2985 13.7579C25.9098 13.7579 23.9525 15.7152 23.9525 18.1038C23.9525 20.4924 25.9098 22.4497 28.2985 22.4497ZM15.5592 25.9995C14 25.9995 12.7393 27.2601 12.7393 28.8193C12.7393 30.3786 14 31.6392 15.5592 31.6392C17.1185 31.6392 18.3791 30.3786 18.3791 28.8193C18.3791 27.2601 17.1185 25.9995 15.5592 25.9995ZM37.4216 28.4876C36.3268 28.4876 35.4311 29.3833 35.4311 30.4781C35.4311 31.5729 36.3268 32.4686 37.4216 32.4686C38.5164 32.4686 39.4121 31.5729 39.4121 30.4781C39.4121 29.3833 38.5164 28.4876 37.4216 28.4876ZM48.9333 18.3692C48.6679 15.118 46.0139 12.4972 42.7628 12.265C39.777 12.0659 37.1894 13.791 36.0946 16.3123V16.3455L34.1704 20.8905C33.2415 23.1132 31.3837 24.8052 29.1278 25.5682C27.5354 26.099 25.744 25.7009 24.5165 24.5398C24.0189 24.0753 23.6208 23.6772 23.6208 23.6772C22.6255 22.7483 21.9952 21.4877 21.7298 20.1938C21.6303 19.7294 21.6303 19.2649 21.6303 18.8005L21.8293 13.7579L21.9288 11.4024C21.9288 11.3361 21.9288 11.2697 21.9288 11.2034C21.9288 4.86694 16.5877 -0.175672 10.1849 0.255604C4.77733 0.587355 0.398217 4.96647 0.0332915 10.374C-0.0330586 11.3361 0.0332915 12.265 0.199167 13.1607C1.12807 18.2697 5.6067 22.1512 10.9811 22.1512C11.2133 22.1512 15.7915 22.4829 17.5829 23.4782L18.8104 24.1748C20.0047 24.8715 20.9336 25.9331 21.4644 27.1938L22.9904 30.9757C23.3885 32.5681 24.8151 33.7293 26.507 33.7293C27.6681 33.7293 28.6966 33.1985 29.3601 32.3359C29.8909 31.6392 33.905 27.625 33.905 27.625C34.8671 26.663 36.1278 26.099 37.4879 25.9995L42.796 25.6345C45.5827 25.4023 47.8717 23.5113 48.6679 20.9569C48.867 20.3265 48.9665 19.663 48.9665 18.9663C48.9665 18.7673 48.9665 18.5682 48.9333 18.3692Z" fill="url(#paint0_linear_38_10635)"/>
<defs>
<linearGradient id="paint0_linear_38_10635" x1="40.5212" y1="4.66853" x2="16.3651" y2="41.7653" gradientUnits="userSpaceOnUse">
<stop stop-color="#FFC876"/>
<stop offset="0.234375" stop-color="#79FFF7"/>
<stop offset="0.520833" stop-color="#9F53FF"/>
<stop offset="0.776042" stop-color="#FF98E2"/>
<stop offset="1" stop-color="#FFC876"/>
</linearGradient>
</defs>
</svg>
