<svg width="175" height="44" viewBox="0 0 175 44" fill="none" xmlns="http://www.w3.org/2000/svg">
<g clip-path="url(#clip0_38_10633)">
<path d="M28.2985 27.4497C30.6871 27.4497 32.6444 25.4924 32.6444 23.1038C32.6444 20.7152 30.6871 18.7579 28.2985 18.7579C25.9098 18.7579 23.9525 20.7152 23.9525 23.1038C23.9525 25.4924 25.9098 27.4497 28.2985 27.4497ZM15.5592 30.9995C14 30.9995 12.7393 32.2601 12.7393 33.8193C12.7393 35.3786 14 36.6392 15.5592 36.6392C17.1185 36.6392 18.3791 35.3786 18.3791 33.8193C18.3791 32.2601 17.1185 30.9995 15.5592 30.9995ZM37.4216 33.4876C36.3268 33.4876 35.4311 34.3833 35.4311 35.4781C35.4311 36.5729 36.3268 37.4686 37.4216 37.4686C38.5164 37.4686 39.4121 36.5729 39.4121 35.4781C39.4121 34.3833 38.5164 33.4876 37.4216 33.4876ZM48.9333 23.3692C48.6679 20.118 46.0139 17.4972 42.7628 17.265C39.777 17.0659 37.1894 18.791 36.0946 21.3123V21.3455L34.1704 25.8905C33.2415 28.1132 31.3837 29.8052 29.1278 30.5682C27.5354 31.099 25.744 30.7009 24.5165 29.5398C24.0189 29.0753 23.6208 28.6772 23.6208 28.6772C22.6255 27.7483 21.9952 26.4877 21.7298 25.1938C21.6303 24.7294 21.6303 24.2649 21.6303 23.8005L21.8293 18.7579L21.9288 16.4024C21.9288 16.3361 21.9288 16.2697 21.9288 16.2034C21.9288 9.86694 16.5877 4.82433 10.1849 5.2556C4.77733 5.58736 0.398217 9.96647 0.0332915 15.374C-0.0330586 16.3361 0.0332915 17.265 0.199167 18.1607C1.12807 23.2697 5.6067 27.1512 10.9811 27.1512C11.2133 27.1512 15.7915 27.4829 17.5829 28.4782L18.8104 29.1748C20.0047 29.8715 20.9336 30.9331 21.4644 32.1938L22.9904 35.9757C23.3885 37.5681 24.8151 38.7293 26.507 38.7293C27.6681 38.7293 28.6966 38.1985 29.3601 37.3359C29.8909 36.6392 33.905 32.625 33.905 32.625C34.8671 31.663 36.1278 31.099 37.4879 30.9995L42.796 30.6345C45.5827 30.4023 47.8717 28.5113 48.6679 25.9569C48.867 25.3265 48.9665 24.663 48.9665 23.9663C48.9665 23.7673 48.9665 23.5682 48.9333 23.3692Z" fill="url(#paint0_linear_38_10633)"/>
</g>
<path d="M56.9664 34.7796V12.3508H71.8616V16.6164H62.0232V21.8108H70.4168V26.0764H62.0232V34.7796H56.9664Z" fill="#130D1B"/>
<path d="M83.5442 34.7796V21.6732H76.6642V17.7172H88.601V34.7796H83.5442ZM85.849 15.034C84.8858 15.034 84.0831 14.7588 83.441 14.2084C82.7988 13.6351 82.4778 12.8898 82.4778 11.9724C82.4778 11.0322 82.7988 10.2754 83.441 9.70202C84.0831 9.10575 84.8858 8.80762 85.849 8.80762C86.8351 8.80762 87.6378 9.10575 88.257 9.70202C88.8991 10.2754 89.2202 11.0322 89.2202 11.9724C89.2202 12.8898 88.8991 13.6351 88.257 14.2084C87.6378 14.7588 86.8351 15.034 85.849 15.034Z" fill="#130D1B"/>
<path d="M97.0843 34.7796V17.7172H101.212L101.591 19.9876H101.728C102.462 19.2538 103.299 18.6231 104.24 18.0956C105.203 17.5682 106.326 17.3044 107.611 17.3044C109.537 17.3044 110.948 17.9236 111.842 19.162C112.736 20.4004 113.184 22.0975 113.184 24.2532V34.7796H108.127V24.9068C108.127 23.7602 107.932 22.9231 107.542 22.3956C107.175 21.8682 106.533 21.6044 105.616 21.6044C104.928 21.6044 104.32 21.765 103.792 22.086C103.288 22.3842 102.737 22.8199 102.141 23.3932V34.7796H97.0843Z" fill="#130D1B"/>
<path d="M126.586 35.1924C124.82 35.1924 123.215 34.8484 121.77 34.1604C120.348 33.4495 119.213 32.429 118.365 31.0988C117.539 29.7458 117.126 28.129 117.126 26.2484C117.126 24.3908 117.55 22.797 118.399 21.4668C119.247 20.1138 120.348 19.0818 121.701 18.3708C123.054 17.6599 124.488 17.3044 126.001 17.3044C127.767 17.3044 129.246 17.6714 130.439 18.4052C131.631 19.1162 132.526 20.0908 133.122 21.3292C133.741 22.5447 134.051 23.9322 134.051 25.4916C134.051 25.9503 134.017 26.3975 133.948 26.8332C133.902 27.246 133.856 27.5556 133.81 27.762H120.876V24.3564H130.405L129.613 25.3196C129.613 23.9436 129.315 22.9116 128.719 22.2236C128.146 21.5127 127.297 21.1572 126.173 21.1572C125.348 21.1572 124.625 21.3407 124.006 21.7076C123.387 22.0746 122.905 22.6364 122.561 23.3932C122.217 24.15 122.045 25.1018 122.045 26.2484C122.045 27.418 122.252 28.3812 122.665 29.138C123.077 29.8719 123.674 30.4223 124.453 30.7892C125.233 31.1562 126.173 31.3396 127.274 31.3396C128.054 31.3396 128.788 31.2364 129.476 31.03C130.187 30.8236 130.921 30.5255 131.677 30.1356L133.363 33.1972C132.377 33.8164 131.287 34.3095 130.095 34.6764C128.902 35.0204 127.733 35.1924 126.586 35.1924Z" fill="#130D1B"/>
<path d="M137.133 34.7796L143.05 25.9044L137.512 17.7172H142.947L144.701 20.4692C144.977 20.9508 145.275 21.4439 145.596 21.9484C145.917 22.43 146.215 22.9116 146.49 23.3932H146.628C146.834 22.9116 147.064 22.4186 147.316 21.914C147.591 21.4095 147.832 20.9279 148.038 20.4692L149.552 17.7172H154.849L149.277 26.4892L155.193 34.7796H149.758L147.797 31.9588C147.476 31.4772 147.144 30.9842 146.8 30.4796C146.479 29.9751 146.158 29.482 145.837 29.0004H145.699C145.447 29.482 145.183 29.9751 144.908 30.4796C144.633 30.9612 144.369 31.4543 144.117 31.9588L142.431 34.7796H137.133Z" fill="#130D1B"/>
<path d="M164.193 35.1924C163.046 35.1924 162.049 34.9631 161.2 34.5044C160.374 34.0458 159.732 33.4266 159.274 32.6468C158.815 31.8671 158.586 30.9956 158.586 30.0324C158.586 28.129 159.446 26.6727 161.166 25.6636C162.909 24.6546 165.798 24.0354 169.834 23.806C169.766 23.2786 169.594 22.8314 169.318 22.4644C169.043 22.0975 168.642 21.8223 168.114 21.6388C167.61 21.4324 166.968 21.3292 166.188 21.3292C165.638 21.3292 165.087 21.398 164.537 21.5356C163.986 21.6503 163.413 21.8338 162.817 22.086C162.243 22.3154 161.636 22.5906 160.994 22.9116L159.205 19.6092C159.985 19.1506 160.799 18.7492 161.647 18.4052C162.519 18.0612 163.413 17.7975 164.33 17.614C165.271 17.4076 166.222 17.3044 167.186 17.3044C168.791 17.3044 170.167 17.5911 171.314 18.1644C172.46 18.7148 173.343 19.5634 173.962 20.71C174.582 21.8338 174.891 23.2671 174.891 25.01V34.7796H170.763L170.385 32.8532H170.247C169.399 33.4954 168.458 34.0458 167.426 34.5044C166.394 34.9631 165.317 35.1924 164.193 35.1924ZM165.81 31.2708C166.566 31.2708 167.277 31.1218 167.942 30.8236C168.608 30.5026 169.238 30.1127 169.834 29.654V26.8332C168.16 26.925 166.853 27.097 165.913 27.3492C164.996 27.6015 164.353 27.9226 163.986 28.3124C163.62 28.7023 163.436 29.1495 163.436 29.654C163.436 29.998 163.528 30.2962 163.711 30.5484C163.918 30.8007 164.193 30.9842 164.537 31.0988C164.904 31.2135 165.328 31.2708 165.81 31.2708Z" fill="#130D1B"/>
<defs>
<linearGradient id="paint0_linear_38_10633" x1="40.5212" y1="9.66853" x2="16.3651" y2="46.7653" gradientUnits="userSpaceOnUse">
<stop stop-color="#FFC876"/>
<stop offset="0.234375" stop-color="#79FFF7"/>
<stop offset="0.520833" stop-color="#9F53FF"/>
<stop offset="0.776042" stop-color="#FF98E2"/>
<stop offset="1" stop-color="#FFC876"/>
</linearGradient>
<clipPath id="clip0_38_10633">
<rect width="48.9664" height="33.54" fill="white" transform="matrix(1 0 0 -1 4.95911e-05 38.7699)"/>
</clipPath>
</defs>
</svg>
